# xmcd CD database file
# Copyright (C) 1997 Ti Kan
# 
# Track frame offsets:
#     150
#     11487
#     19915
#     30535
#     38652
#     47515
#     55630
#     64405
#     73957
#     83415
#     94057
#     103027
#     111532
#     124912
#     135775
#     144450
#     154710
#     166715
#     185260
#     196705
#     217662
#     223772
#     234335
#     246080
#     259325
#     273465
#     290700
# 
# Disc length: 4018 seconds
# 
# Revision: 1
# Processed by: cddbd v1.4b41PL1 Copyright (c) Steve Scherf et al.
# Submitted via: DiscPlay 4.0.3
# 
DISCID=780fb01b
DTITLE=Roger Miller - The Country Singer
DYEAR=1900
DGENRE=
TTITLE0=King Of The Road
TTITLE1=Dang Me
TTITLE2=Engine Engine No 9
TTITLE3=In The Summertime
TTITLE4=You Can't Rollerskate In A Buffalo Herd
TTITLE5=Do Wacka Do
TTITLE6=England Swings
TTITLE7=Chug A Lug
TTITLE8=One Dying And One Burying
TTITLE9=Kansas City Star
TTITLE10=Atta Boy Girl
TTITLE11=It Happened Just That Way
TTITLE12=Ruby Don't Take Your Love To Town
TTITLE13=Husbands And Wives
TTITLE14=My Uncle Used To Love Me But She Died
TTITLE15=Tolivar
TTITLE16=Little Green Apples
TTITLE17=Me And Bobby Mcgee
TTITLE18=The Tom Green County Fair
TTITLE19=Vance
TTITLE20=Boeing Boeing 707
TTITLE21=Ballad Of Water Hole #3 (code Of The West)
TTITLE22=By The Time I Get To Phoenix
TTITLE23=My Elusive Dreams
TTITLE24=Gentle On My Mind
TTITLE25=Honey
TTITLE26=The Twelfth Of Never
EXTD=
EXTT0=
EXTT1=
EXTT2=
EXTT3=
EXTT4=
EXTT5=
EXTT6=
EXTT7=
EXTT8=
EXTT9=
EXTT10=
EXTT11=
EXTT12=
EXTT13=
EXTT14=
EXTT15=
EXTT16=
EXTT17=
EXTT18=
EXTT19=
EXTT20=
EXTT21=
EXTT22=
EXTT23=
EXTT24=
EXTT25=
EXTT26=
PLAYORDER=
